ISO-10303-21;
HEADER;
FILE_DESCRIPTION(('ViewDefinition [CoordinationView_V2.0]'),'2;1');
FILE_NAME('TAKWEEN_generated.ifc','2026-09-20T00:00:00',('TAKWEEN'),('TAKWEEN'),'TAKWEEN IFC Writer','TAKWEEN','');
FILE_SCHEMA(('IFC4'));
ENDSEC;
DATA;
#1=IFCPERSONANDORGANIZATION($,$,$,$,$,$,$);
#2=IFCAPPLICATION(#1,'TAKWEEN','TAKWEEN IFC Writer','TAKWEEN');
#3=IFCOWNERHISTORY(#1,#2,$,$,$,$,$,$,$);
#4=IFCPROJECT('952712bd3b3a4ff8879bfe',#3,'TAKWEEN Project',$,$,$,$,$);
#5=IFCGEOMETRICREPRESENTATIONCONTEXT('Model','Model',3,1.0E-5,$,$);
#6=IFCSITE('8124eb693382409193df42',#3,'TAKWEEN Site',$,$,$,$,$,$,$,$,$,$,$);
#7=IFCBUILDING('02d8b169a77747a19c89ce',#3,'TAKWEEN Villa',$,$,$,$,$,$,$,$,$,$,$);
#8=IFCBUILDINGSTOREY('6b16681172744f17a52d45',#3,'Ground Floor',$,$,$,0.000,$);
#9=IFCBUILDINGSTOREY('c0ba6632fa114d0a80a753',#3,'Upper Floor',$,$,$,3.300,$);
#10=IFCRELAGGREGATES('c89f5ed1655c46989cbd37',#3,$,$,#4,(#6));
#11=IFCRELAGGREGATES('75a5b3e9294e47a2afb9ad',#3,$,$,#6,(#7));
#12=IFCRELAGGREGATES('bde08a77fdb043c6b1b32e',#3,$,$,#7,(#8,#9));
#13=IFCSPACE('80ccdb311ba14764ae51ab',#3,'Entrance / Foyer',$,$,$,$,$,'F1-ENTRY-1',$);
#14=IFCRELCONTAINEDINSPATIALSTRUCTURE('2dd96e4b761045c4bf1f27',#3,$,$,(#13),#8);
#15=IFCSPACE('12b6cd32326249c7bb0cb9',#3,'Majlis',$,$,$,$,$,'F1-MAJLIS-1',$);
#16=IFCRELCONTAINEDINSPATIALSTRUCTURE('4cbad0c8ab0240be988120',#3,$,$,(#15),#8);
#17=IFCSPACE('3fac3d465839450ba6a7b4',#3,'Family Living',$,$,$,$,$,'F1-FAMILY-1',$);
#18=IFCRELCONTAINEDINSPATIALSTRUCTURE('3a85a697465e41718c99d9',#3,$,$,(#17),#8);
#19=IFCSPACE('4da2a708c4414c9aad4e57',#3,'Bedroom 1',$,$,$,$,$,'F2-BED-1-1',$);
#20=IFCRELCONTAINEDINSPATIALSTRUCTURE('5eb9fabb9d4945af9432d3',#3,$,$,(#19),#9);
#21=IFCSPACE('f5b2c032acd24503b04d78',#3,'Bedroom 2',$,$,$,$,$,'F2-BED-1-2',$);
#22=IFCRELCONTAINEDINSPATIALSTRUCTURE('c1158380546d4aa6b90947',#3,$,$,(#21),#9);
#23=IFCSPACE('4f4888fd487c4a2f84bc0f',#3,'Bedroom 3',$,$,$,$,$,'F2-BED-1-3',$);
#24=IFCRELCONTAINEDINSPATIALSTRUCTURE('7a5ff35dfa494e17a90ed4',#3,$,$,(#23),#9);
#25=IFCSPACE('9336729641ed4c02b6cfe1',#3,'Bedroom 4',$,$,$,$,$,'F2-BED-1-4',$);
#26=IFCRELCONTAINEDINSPATIALSTRUCTURE('7b193f7566b64389955a2e',#3,$,$,(#25),#9);
ENDSEC;
END-ISO-10303-21;
